<svg width="60" height="60" viewBox="0 0 60 60" fill="none" xmlns="http://www.w3.org/2000/svg">
<circle cx="30" cy="30" r="30" transform="rotate(-180 30 30)" fill="#D1D3E5"/>
<path d="M45 32C46.1046 32 47 31.1046 47 30C47 28.8954 46.1046 28 45 28V30V32ZM13.5858 28.5858C12.8047 29.3668 12.8047 30.6332 13.5858 31.4142L26.3137 44.1421C27.0948 44.9232 28.3611 44.9232 29.1421 44.1421C29.9232 43.3611 29.9232 42.0948 29.1421 41.3137L17.8284 30L29.1421 18.6863C29.9232 17.9052 29.9232 16.6389 29.1421 15.8579C28.3611 15.0768 27.0948 15.0768 26.3137 15.8579L13.5858 28.5858ZM45 30V28L15 28V30V32L45 32V30Z" fill="white"/>
</svg>
